<mxfile host="app.diagrams.net" agent="Mozilla/5.0 (Macintosh; Intel Mac OS X 10_15_7) AppleWebKit/537.36 (KHTML, like Gecko) Chrome/131.0.0.0 Safari/537.36" version="24.8.4">
  <diagram id="Ht1M8jgEwFfnCIfOTk4-" name="Page-1">
    <mxGraphModel dx="1434" dy="785" grid="1" gridSize="10" guides="1" tooltips="1" connect="1" arrows="1" fold="1" page="1" pageScale="1" pageWidth="1169" pageHeight="827" math="0" shadow="0">
      <root>
        <mxCell id="0" />
        <mxCell id="1" parent="0" />
        <mxCell id="FKsjfTGp6whfGJ9oONud-2" value="VPC" style="points=[[0,0],[0.25,0],[0.5,0],[0.75,0],[1,0],[1,0.25],[1,0.5],[1,0.75],[1,1],[0.75,1],[0.5,1],[0.25,1],[0,1],[0,0.75],[0,0.5],[0,0.25]];outlineConnect=0;gradientColor=none;html=1;whiteSpace=wrap;fontSize=12;fontStyle=1;container=1;pointerEvents=0;collapsible=0;recursiveResize=0;shape=mxgraph.aws4.group;grIcon=mxgraph.aws4.group_vpc2;strokeColor=#8C4FFF;fillColor=none;verticalAlign=top;align=left;spacingLeft=30;fontColor=#AAB7B8;dashed=0;labelBackgroundColor=none;spacingTop=0;textShadow=0;" vertex="1" parent="1">
          <mxGeometry x="80" y="40" width="1050" height="750" as="geometry" />
        </mxCell>
        <mxCell id="FKsjfTGp6whfGJ9oONud-7" value="ap-northeast-2a (AZ1)" style="fillColor=none;strokeColor=#147EBA;dashed=1;verticalAlign=top;fontStyle=1;fontColor=#147EBA;whiteSpace=wrap;html=1;labelBackgroundColor=none;spacingTop=0;textShadow=0;" vertex="1" parent="FKsjfTGp6whfGJ9oONud-2">
          <mxGeometry x="30" y="40" width="970" height="340" as="geometry" />
        </mxCell>
        <mxCell id="FKsjfTGp6whfGJ9oONud-1" value="Private subnet 1" style="points=[[0,0],[0.25,0],[0.5,0],[0.75,0],[1,0],[1,0.25],[1,0.5],[1,0.75],[1,1],[0.75,1],[0.5,1],[0.25,1],[0,1],[0,0.75],[0,0.5],[0,0.25]];outlineConnect=0;gradientColor=none;html=1;whiteSpace=wrap;fontSize=12;fontStyle=1;container=1;pointerEvents=0;collapsible=0;recursiveResize=0;shape=mxgraph.aws4.group;grIcon=mxgraph.aws4.group_security_group;grStroke=0;strokeColor=#00A4A6;fillColor=#E6F6F7;verticalAlign=top;align=left;spacingLeft=30;fontColor=#147EBA;dashed=0;labelBackgroundColor=none;spacingTop=0;textShadow=0;" vertex="1" parent="FKsjfTGp6whfGJ9oONud-2">
          <mxGeometry x="530" y="70" width="440" height="280" as="geometry" />
        </mxCell>
        <mxCell id="FKsjfTGp6whfGJ9oONud-54" value="" style="group" vertex="1" connectable="0" parent="FKsjfTGp6whfGJ9oONud-1">
          <mxGeometry x="45" y="30" width="350" height="220" as="geometry" />
        </mxCell>
        <mxCell id="FKsjfTGp6whfGJ9oONud-20" value="Task1" style="sketch=0;outlineConnect=0;fontColor=#232F3E;gradientColor=none;fillColor=#ED7100;strokeColor=none;dashed=0;verticalLabelPosition=bottom;verticalAlign=top;align=center;html=1;fontSize=12;fontStyle=1;aspect=fixed;pointerEvents=1;shape=mxgraph.aws4.ecs_task;labelBackgroundColor=none;spacingTop=0;textShadow=0;" vertex="1" parent="FKsjfTGp6whfGJ9oONud-54">
          <mxGeometry x="66" y="139" width="37" height="48" as="geometry" />
        </mxCell>
        <mxCell id="FKsjfTGp6whfGJ9oONud-22" value="Task2" style="sketch=0;outlineConnect=0;fontColor=#232F3E;gradientColor=none;fillColor=#ED7100;strokeColor=none;dashed=0;verticalLabelPosition=bottom;verticalAlign=top;align=center;html=1;fontSize=12;fontStyle=1;aspect=fixed;pointerEvents=1;shape=mxgraph.aws4.ecs_task;labelBackgroundColor=none;spacingTop=0;textShadow=0;" vertex="1" parent="FKsjfTGp6whfGJ9oONud-54">
          <mxGeometry x="136" y="139" width="37" height="48" as="geometry" />
        </mxCell>
        <mxCell id="FKsjfTGp6whfGJ9oONud-27" value="Task4" style="sketch=0;outlineConnect=0;fontColor=#232F3E;gradientColor=none;fillColor=#ED7100;strokeColor=none;dashed=0;verticalLabelPosition=bottom;verticalAlign=top;align=center;html=1;fontSize=12;fontStyle=1;aspect=fixed;pointerEvents=1;shape=mxgraph.aws4.ecs_task;labelBackgroundColor=none;spacingTop=0;textShadow=0;" vertex="1" parent="FKsjfTGp6whfGJ9oONud-54">
          <mxGeometry x="276" y="139" width="37" height="48" as="geometry" />
        </mxCell>
        <mxCell id="FKsjfTGp6whfGJ9oONud-31" value="Target group" style="points=[[0,0],[0.25,0],[0.5,0],[0.75,0],[1,0],[1,0.25],[1,0.5],[1,0.75],[1,1],[0.75,1],[0.5,1],[0.25,1],[0,1],[0,0.75],[0,0.5],[0,0.25]];outlineConnect=0;gradientColor=none;html=1;whiteSpace=wrap;fontSize=12;fontStyle=0;container=1;pointerEvents=0;collapsible=0;recursiveResize=0;shape=mxgraph.aws4.groupCenter;grIcon=mxgraph.aws4.group_auto_scaling_group;grStroke=1;strokeColor=#D86613;fillColor=none;verticalAlign=top;align=center;fontColor=#D86613;dashed=1;spacingTop=25;" vertex="1" parent="FKsjfTGp6whfGJ9oONud-54">
          <mxGeometry width="350" height="220" as="geometry" />
        </mxCell>
        <mxCell id="FKsjfTGp6whfGJ9oONud-6" value="ap-northeast-2b (AZ2)" style="fillColor=none;strokeColor=#147EBA;dashed=1;verticalAlign=top;fontStyle=1;fontColor=#147EBA;whiteSpace=wrap;html=1;labelBackgroundColor=none;spacingTop=0;textShadow=0;" vertex="1" parent="FKsjfTGp6whfGJ9oONud-2">
          <mxGeometry x="30" y="400" width="970" height="340" as="geometry" />
        </mxCell>
        <mxCell id="FKsjfTGp6whfGJ9oONud-4" value="Public subnet 2" style="points=[[0,0],[0.25,0],[0.5,0],[0.75,0],[1,0],[1,0.25],[1,0.5],[1,0.75],[1,1],[0.75,1],[0.5,1],[0.25,1],[0,1],[0,0.75],[0,0.5],[0,0.25]];outlineConnect=0;gradientColor=none;html=1;whiteSpace=wrap;fontSize=12;fontStyle=1;container=1;pointerEvents=0;collapsible=0;recursiveResize=0;shape=mxgraph.aws4.group;grIcon=mxgraph.aws4.group_security_group;grStroke=0;strokeColor=#7AA116;fillColor=#F2F6E8;verticalAlign=top;align=left;spacingLeft=30;fontColor=#248814;dashed=0;labelBackgroundColor=none;spacingTop=0;textShadow=0;" vertex="1" parent="FKsjfTGp6whfGJ9oONud-2">
          <mxGeometry x="59" y="430" width="450" height="280" as="geometry" />
        </mxCell>
        <mxCell id="FKsjfTGp6whfGJ9oONud-9" value="Application&lt;div&gt;Load Balancer&lt;/div&gt;" style="sketch=0;points=[[0,0,0],[0.25,0,0],[0.5,0,0],[0.75,0,0],[1,0,0],[0,1,0],[0.25,1,0],[0.5,1,0],[0.75,1,0],[1,1,0],[0,0.25,0],[0,0.5,0],[0,0.75,0],[1,0.25,0],[1,0.5,0],[1,0.75,0]];outlineConnect=0;fontColor=#232F3E;fillColor=#ED7100;strokeColor=#ffffff;dashed=0;verticalLabelPosition=bottom;verticalAlign=top;align=center;html=1;fontSize=12;fontStyle=1;aspect=fixed;shape=mxgraph.aws4.resourceIcon;resIcon=mxgraph.aws4.elastic_load_balancing;labelBackgroundColor=none;spacingTop=0;textShadow=0;" vertex="1" parent="FKsjfTGp6whfGJ9oONud-4">
          <mxGeometry x="195" y="101" width="78" height="78" as="geometry" />
        </mxCell>
        <mxCell id="FKsjfTGp6whfGJ9oONud-5" value="Private subnet 2" style="points=[[0,0],[0.25,0],[0.5,0],[0.75,0],[1,0],[1,0.25],[1,0.5],[1,0.75],[1,1],[0.75,1],[0.5,1],[0.25,1],[0,1],[0,0.75],[0,0.5],[0,0.25]];outlineConnect=0;gradientColor=none;html=1;whiteSpace=wrap;fontSize=12;fontStyle=1;container=1;pointerEvents=0;collapsible=0;recursiveResize=0;shape=mxgraph.aws4.group;grIcon=mxgraph.aws4.group_security_group;grStroke=0;strokeColor=#00A4A6;fillColor=#E6F6F7;verticalAlign=top;align=left;spacingLeft=30;fontColor=#147EBA;dashed=0;labelBackgroundColor=none;spacingTop=0;textShadow=0;" vertex="1" parent="FKsjfTGp6whfGJ9oONud-2">
          <mxGeometry x="529" y="430" width="441" height="280" as="geometry" />
        </mxCell>
        <mxCell id="FKsjfTGp6whfGJ9oONud-3" value="Public subnet 1" style="points=[[0,0],[0.25,0],[0.5,0],[0.75,0],[1,0],[1,0.25],[1,0.5],[1,0.75],[1,1],[0.75,1],[0.5,1],[0.25,1],[0,1],[0,0.75],[0,0.5],[0,0.25]];outlineConnect=0;gradientColor=none;html=1;whiteSpace=wrap;fontSize=12;fontStyle=1;container=1;pointerEvents=0;collapsible=0;recursiveResize=0;shape=mxgraph.aws4.group;grIcon=mxgraph.aws4.group_security_group;grStroke=0;strokeColor=#7AA116;fillColor=#F2F6E8;verticalAlign=top;align=left;spacingLeft=30;fontColor=#248814;dashed=0;labelBackgroundColor=none;spacingTop=0;textShadow=0;" vertex="1" parent="FKsjfTGp6whfGJ9oONud-2">
          <mxGeometry x="59" y="70" width="450" height="280" as="geometry" />
        </mxCell>
        <mxCell id="FKsjfTGp6whfGJ9oONud-8" value="Application&lt;div&gt;Load Balancer&lt;/div&gt;" style="sketch=0;points=[[0,0,0],[0.25,0,0],[0.5,0,0],[0.75,0,0],[1,0,0],[0,1,0],[0.25,1,0],[0.5,1,0],[0.75,1,0],[1,1,0],[0,0.25,0],[0,0.5,0],[0,0.75,0],[1,0.25,0],[1,0.5,0],[1,0.75,0]];outlineConnect=0;fontColor=#232F3E;fillColor=#ED7100;strokeColor=#ffffff;dashed=0;verticalLabelPosition=bottom;verticalAlign=top;align=center;html=1;fontSize=12;fontStyle=1;aspect=fixed;shape=mxgraph.aws4.resourceIcon;resIcon=mxgraph.aws4.elastic_load_balancing;labelBackgroundColor=none;spacingTop=0;textShadow=0;" vertex="1" parent="FKsjfTGp6whfGJ9oONud-3">
          <mxGeometry x="195" y="91" width="78" height="78" as="geometry" />
        </mxCell>
        <mxCell id="FKsjfTGp6whfGJ9oONud-24" style="edgeStyle=orthogonalEdgeStyle;rounded=0;orthogonalLoop=1;jettySize=auto;html=1;labelBackgroundColor=none;fontStyle=1;spacingTop=0;textShadow=0;" edge="1" parent="FKsjfTGp6whfGJ9oONud-2" source="FKsjfTGp6whfGJ9oONud-19" target="FKsjfTGp6whfGJ9oONud-20">
          <mxGeometry relative="1" as="geometry">
            <Array as="points">
              <mxPoint x="730" y="220" />
              <mxPoint x="659" y="220" />
            </Array>
          </mxGeometry>
        </mxCell>
        <mxCell id="FKsjfTGp6whfGJ9oONud-25" style="edgeStyle=orthogonalEdgeStyle;rounded=0;orthogonalLoop=1;jettySize=auto;html=1;labelBackgroundColor=none;fontStyle=1;spacingTop=0;textShadow=0;" edge="1" parent="FKsjfTGp6whfGJ9oONud-2" source="FKsjfTGp6whfGJ9oONud-19" target="FKsjfTGp6whfGJ9oONud-22">
          <mxGeometry relative="1" as="geometry">
            <Array as="points">
              <mxPoint x="730" y="220" />
              <mxPoint x="729" y="220" />
            </Array>
          </mxGeometry>
        </mxCell>
        <mxCell id="FKsjfTGp6whfGJ9oONud-26" style="edgeStyle=orthogonalEdgeStyle;rounded=0;orthogonalLoop=1;jettySize=auto;html=1;labelBackgroundColor=none;fontStyle=1;spacingTop=0;textShadow=0;" edge="1" parent="FKsjfTGp6whfGJ9oONud-2" source="FKsjfTGp6whfGJ9oONud-19" target="FKsjfTGp6whfGJ9oONud-23">
          <mxGeometry relative="1" as="geometry">
            <Array as="points">
              <mxPoint x="730" y="220" />
              <mxPoint x="799" y="220" />
            </Array>
          </mxGeometry>
        </mxCell>
        <mxCell id="FKsjfTGp6whfGJ9oONud-28" style="edgeStyle=orthogonalEdgeStyle;rounded=0;orthogonalLoop=1;jettySize=auto;html=1;labelBackgroundColor=none;fontStyle=1;spacingTop=0;textShadow=0;" edge="1" parent="FKsjfTGp6whfGJ9oONud-2" source="FKsjfTGp6whfGJ9oONud-19" target="FKsjfTGp6whfGJ9oONud-27">
          <mxGeometry relative="1" as="geometry">
            <Array as="points">
              <mxPoint x="730" y="220" />
              <mxPoint x="869" y="220" />
            </Array>
          </mxGeometry>
        </mxCell>
        <mxCell id="FKsjfTGp6whfGJ9oONud-19" value="Service" style="sketch=0;outlineConnect=0;fontColor=#232F3E;gradientColor=none;fillColor=#ED7100;strokeColor=none;dashed=0;verticalLabelPosition=bottom;verticalAlign=top;align=center;html=1;fontSize=12;fontStyle=1;aspect=fixed;pointerEvents=1;shape=mxgraph.aws4.ecs_service;labelBackgroundColor=none;spacingTop=0;textShadow=0;spacingLeft=0;spacingBottom=0;spacing=-40;spacingRight=100;" vertex="1" parent="FKsjfTGp6whfGJ9oONud-2">
          <mxGeometry x="710" y="155" width="39" height="48" as="geometry" />
        </mxCell>
        <mxCell id="FKsjfTGp6whfGJ9oONud-23" value="Task3" style="sketch=0;outlineConnect=0;fontColor=#232F3E;gradientColor=none;fillColor=#ED7100;strokeColor=none;dashed=0;verticalLabelPosition=bottom;verticalAlign=top;align=center;html=1;fontSize=12;fontStyle=1;aspect=fixed;pointerEvents=1;shape=mxgraph.aws4.ecs_task;labelBackgroundColor=none;spacingTop=0;textShadow=0;" vertex="1" parent="FKsjfTGp6whfGJ9oONud-2">
          <mxGeometry x="780" y="240" width="37" height="48" as="geometry" />
        </mxCell>
        <mxCell id="FKsjfTGp6whfGJ9oONud-33" style="edgeStyle=orthogonalEdgeStyle;rounded=0;orthogonalLoop=1;jettySize=auto;html=1;" edge="1" parent="FKsjfTGp6whfGJ9oONud-2" source="FKsjfTGp6whfGJ9oONud-8" target="FKsjfTGp6whfGJ9oONud-31">
          <mxGeometry relative="1" as="geometry">
            <mxPoint x="570" y="200" as="targetPoint" />
            <Array as="points">
              <mxPoint x="520" y="200" />
              <mxPoint x="520" y="200" />
            </Array>
          </mxGeometry>
        </mxCell>
        <mxCell id="FKsjfTGp6whfGJ9oONud-15" value="HTTPS" style="text;html=1;align=center;verticalAlign=middle;resizable=0;points=[];autosize=1;strokeColor=none;fillColor=none;labelBackgroundColor=none;fontStyle=1;spacingTop=0;textShadow=0;" vertex="1" parent="1">
          <mxGeometry x="9" y="330" width="60" height="30" as="geometry" />
        </mxCell>
        <mxCell id="FKsjfTGp6whfGJ9oONud-73" value="Redirect" style="edgeStyle=orthogonalEdgeStyle;rounded=0;orthogonalLoop=1;jettySize=auto;html=1;" edge="1" parent="1" source="FKsjfTGp6whfGJ9oONud-16">
          <mxGeometry x="0.5823" y="30" relative="1" as="geometry">
            <mxPoint x="290" y="610" as="targetPoint" />
            <mxPoint as="offset" />
          </mxGeometry>
        </mxCell>
        <mxCell id="FKsjfTGp6whfGJ9oONud-74" value="Redirect" style="edgeStyle=orthogonalEdgeStyle;rounded=0;orthogonalLoop=1;jettySize=auto;html=1;" edge="1" parent="1" source="FKsjfTGp6whfGJ9oONud-16">
          <mxGeometry x="0.4536" y="-30" relative="1" as="geometry">
            <mxPoint x="290" y="240" as="targetPoint" />
            <mxPoint as="offset" />
          </mxGeometry>
        </mxCell>
        <mxCell id="FKsjfTGp6whfGJ9oONud-16" value="HTTP" style="text;html=1;align=center;verticalAlign=middle;resizable=0;points=[];autosize=1;strokeColor=none;fillColor=none;labelBackgroundColor=none;fontStyle=1;spacingTop=0;textShadow=0;" vertex="1" parent="1">
          <mxGeometry x="14" y="438" width="50" height="30" as="geometry" />
        </mxCell>
        <mxCell id="FKsjfTGp6whfGJ9oONud-71" style="edgeStyle=orthogonalEdgeStyle;rounded=0;orthogonalLoop=1;jettySize=auto;html=1;" edge="1" parent="1" source="FKsjfTGp6whfGJ9oONud-18" target="FKsjfTGp6whfGJ9oONud-69">
          <mxGeometry relative="1" as="geometry">
            <Array as="points">
              <mxPoint x="1100" y="429" />
              <mxPoint x="1100" y="590" />
            </Array>
          </mxGeometry>
        </mxCell>
        <mxCell id="FKsjfTGp6whfGJ9oONud-18" value="ECS Cluster" style="sketch=0;points=[[0,0,0],[0.25,0,0],[0.5,0,0],[0.75,0,0],[1,0,0],[0,1,0],[0.25,1,0],[0.5,1,0],[0.75,1,0],[1,1,0],[0,0.25,0],[0,0.5,0],[0,0.75,0],[1,0.25,0],[1,0.5,0],[1,0.75,0]];outlineConnect=0;fontColor=#232F3E;fillColor=#ED7100;strokeColor=#ffffff;dashed=0;verticalLabelPosition=bottom;verticalAlign=top;align=center;html=1;fontSize=12;fontStyle=1;aspect=fixed;shape=mxgraph.aws4.resourceIcon;resIcon=mxgraph.aws4.ecs;labelBackgroundColor=none;spacingTop=0;textShadow=0;" vertex="1" parent="1">
          <mxGeometry x="1150" y="390" width="78" height="78" as="geometry" />
        </mxCell>
        <mxCell id="FKsjfTGp6whfGJ9oONud-21" style="edgeStyle=orthogonalEdgeStyle;rounded=0;orthogonalLoop=1;jettySize=auto;html=1;labelBackgroundColor=none;fontStyle=1;spacingTop=0;textShadow=0;" edge="1" parent="1" source="FKsjfTGp6whfGJ9oONud-18" target="FKsjfTGp6whfGJ9oONud-19">
          <mxGeometry relative="1" as="geometry">
            <Array as="points">
              <mxPoint x="1100" y="429" />
              <mxPoint x="1100" y="220" />
            </Array>
          </mxGeometry>
        </mxCell>
        <mxCell id="FKsjfTGp6whfGJ9oONud-60" value="" style="group" vertex="1" connectable="0" parent="1">
          <mxGeometry x="655" y="505" width="350" height="220" as="geometry" />
        </mxCell>
        <mxCell id="FKsjfTGp6whfGJ9oONud-61" value="Task1" style="sketch=0;outlineConnect=0;fontColor=#232F3E;gradientColor=none;fillColor=#ED7100;strokeColor=none;dashed=0;verticalLabelPosition=bottom;verticalAlign=top;align=center;html=1;fontSize=12;fontStyle=1;aspect=fixed;pointerEvents=1;shape=mxgraph.aws4.ecs_task;labelBackgroundColor=none;spacingTop=0;textShadow=0;" vertex="1" parent="FKsjfTGp6whfGJ9oONud-60">
          <mxGeometry x="66" y="139" width="37" height="48" as="geometry" />
        </mxCell>
        <mxCell id="FKsjfTGp6whfGJ9oONud-62" value="Task2" style="sketch=0;outlineConnect=0;fontColor=#232F3E;gradientColor=none;fillColor=#ED7100;strokeColor=none;dashed=0;verticalLabelPosition=bottom;verticalAlign=top;align=center;html=1;fontSize=12;fontStyle=1;aspect=fixed;pointerEvents=1;shape=mxgraph.aws4.ecs_task;labelBackgroundColor=none;spacingTop=0;textShadow=0;" vertex="1" parent="FKsjfTGp6whfGJ9oONud-60">
          <mxGeometry x="136" y="139" width="37" height="48" as="geometry" />
        </mxCell>
        <mxCell id="FKsjfTGp6whfGJ9oONud-63" value="Task4" style="sketch=0;outlineConnect=0;fontColor=#232F3E;gradientColor=none;fillColor=#ED7100;strokeColor=none;dashed=0;verticalLabelPosition=bottom;verticalAlign=top;align=center;html=1;fontSize=12;fontStyle=1;aspect=fixed;pointerEvents=1;shape=mxgraph.aws4.ecs_task;labelBackgroundColor=none;spacingTop=0;textShadow=0;" vertex="1" parent="FKsjfTGp6whfGJ9oONud-60">
          <mxGeometry x="276" y="139" width="37" height="48" as="geometry" />
        </mxCell>
        <mxCell id="FKsjfTGp6whfGJ9oONud-64" value="Target group" style="points=[[0,0],[0.25,0],[0.5,0],[0.75,0],[1,0],[1,0.25],[1,0.5],[1,0.75],[1,1],[0.75,1],[0.5,1],[0.25,1],[0,1],[0,0.75],[0,0.5],[0,0.25]];outlineConnect=0;gradientColor=none;html=1;whiteSpace=wrap;fontSize=12;fontStyle=0;container=1;pointerEvents=0;collapsible=0;recursiveResize=0;shape=mxgraph.aws4.groupCenter;grIcon=mxgraph.aws4.group_auto_scaling_group;grStroke=1;strokeColor=#D86613;fillColor=none;verticalAlign=top;align=center;fontColor=#D86613;dashed=1;spacingTop=25;" vertex="1" parent="FKsjfTGp6whfGJ9oONud-60">
          <mxGeometry width="350" height="220" as="geometry" />
        </mxCell>
        <mxCell id="FKsjfTGp6whfGJ9oONud-65" style="edgeStyle=orthogonalEdgeStyle;rounded=0;orthogonalLoop=1;jettySize=auto;html=1;labelBackgroundColor=none;fontStyle=1;spacingTop=0;textShadow=0;" edge="1" parent="1" source="FKsjfTGp6whfGJ9oONud-69" target="FKsjfTGp6whfGJ9oONud-61">
          <mxGeometry relative="1" as="geometry">
            <Array as="points">
              <mxPoint x="810" y="625" />
              <mxPoint x="739" y="625" />
            </Array>
          </mxGeometry>
        </mxCell>
        <mxCell id="FKsjfTGp6whfGJ9oONud-66" style="edgeStyle=orthogonalEdgeStyle;rounded=0;orthogonalLoop=1;jettySize=auto;html=1;labelBackgroundColor=none;fontStyle=1;spacingTop=0;textShadow=0;" edge="1" parent="1" source="FKsjfTGp6whfGJ9oONud-69" target="FKsjfTGp6whfGJ9oONud-62">
          <mxGeometry relative="1" as="geometry">
            <Array as="points">
              <mxPoint x="810" y="625" />
              <mxPoint x="809" y="625" />
            </Array>
          </mxGeometry>
        </mxCell>
        <mxCell id="FKsjfTGp6whfGJ9oONud-67" style="edgeStyle=orthogonalEdgeStyle;rounded=0;orthogonalLoop=1;jettySize=auto;html=1;labelBackgroundColor=none;fontStyle=1;spacingTop=0;textShadow=0;" edge="1" parent="1" source="FKsjfTGp6whfGJ9oONud-69" target="FKsjfTGp6whfGJ9oONud-70">
          <mxGeometry relative="1" as="geometry">
            <Array as="points">
              <mxPoint x="810" y="625" />
              <mxPoint x="879" y="625" />
            </Array>
          </mxGeometry>
        </mxCell>
        <mxCell id="FKsjfTGp6whfGJ9oONud-68" style="edgeStyle=orthogonalEdgeStyle;rounded=0;orthogonalLoop=1;jettySize=auto;html=1;labelBackgroundColor=none;fontStyle=1;spacingTop=0;textShadow=0;" edge="1" parent="1" source="FKsjfTGp6whfGJ9oONud-69" target="FKsjfTGp6whfGJ9oONud-63">
          <mxGeometry relative="1" as="geometry">
            <Array as="points">
              <mxPoint x="810" y="625" />
              <mxPoint x="949" y="625" />
            </Array>
          </mxGeometry>
        </mxCell>
        <mxCell id="FKsjfTGp6whfGJ9oONud-69" value="Service" style="sketch=0;outlineConnect=0;fontColor=#232F3E;gradientColor=none;fillColor=#ED7100;strokeColor=none;dashed=0;verticalLabelPosition=bottom;verticalAlign=top;align=center;html=1;fontSize=12;fontStyle=1;aspect=fixed;pointerEvents=1;shape=mxgraph.aws4.ecs_service;labelBackgroundColor=none;spacingTop=0;textShadow=0;spacingLeft=0;spacingBottom=0;spacing=-40;spacingRight=100;" vertex="1" parent="1">
          <mxGeometry x="790" y="560" width="39" height="48" as="geometry" />
        </mxCell>
        <mxCell id="FKsjfTGp6whfGJ9oONud-70" value="Task3" style="sketch=0;outlineConnect=0;fontColor=#232F3E;gradientColor=none;fillColor=#ED7100;strokeColor=none;dashed=0;verticalLabelPosition=bottom;verticalAlign=top;align=center;html=1;fontSize=12;fontStyle=1;aspect=fixed;pointerEvents=1;shape=mxgraph.aws4.ecs_task;labelBackgroundColor=none;spacingTop=0;textShadow=0;" vertex="1" parent="1">
          <mxGeometry x="860" y="645" width="37" height="48" as="geometry" />
        </mxCell>
        <mxCell id="FKsjfTGp6whfGJ9oONud-72" style="edgeStyle=orthogonalEdgeStyle;rounded=0;orthogonalLoop=1;jettySize=auto;html=1;entryX=0;entryY=0.5;entryDx=0;entryDy=0;entryPerimeter=0;" edge="1" parent="1" source="FKsjfTGp6whfGJ9oONud-15" target="FKsjfTGp6whfGJ9oONud-9">
          <mxGeometry relative="1" as="geometry">
            <Array as="points">
              <mxPoint x="130" y="345" />
              <mxPoint x="130" y="610" />
            </Array>
          </mxGeometry>
        </mxCell>
        <mxCell id="FKsjfTGp6whfGJ9oONud-75" style="edgeStyle=orthogonalEdgeStyle;rounded=0;orthogonalLoop=1;jettySize=auto;html=1;entryX=0;entryY=0.5;entryDx=0;entryDy=0;entryPerimeter=0;" edge="1" parent="1" source="FKsjfTGp6whfGJ9oONud-15" target="FKsjfTGp6whfGJ9oONud-8">
          <mxGeometry relative="1" as="geometry">
            <Array as="points">
              <mxPoint x="130" y="345" />
              <mxPoint x="130" y="240" />
            </Array>
          </mxGeometry>
        </mxCell>
        <mxCell id="FKsjfTGp6whfGJ9oONud-76" style="edgeStyle=orthogonalEdgeStyle;rounded=0;orthogonalLoop=1;jettySize=auto;html=1;" edge="1" parent="1" source="FKsjfTGp6whfGJ9oONud-9" target="FKsjfTGp6whfGJ9oONud-64">
          <mxGeometry relative="1" as="geometry">
            <Array as="points">
              <mxPoint x="600" y="610" />
              <mxPoint x="600" y="610" />
            </Array>
          </mxGeometry>
        </mxCell>
      </root>
    </mxGraphModel>
  </diagram>
</mxfile>
